<svg id="visual" viewBox="0 0 900 400" width="900" height="400" xmlns="http://www.w3.org/2000/svg" xmlns:xlink="http://www.w3.org/1999/xlink" version="1.1"><rect x="0" y="0" width="900" height="400" fill="#001220"></rect><path d="M0 285L12.5 285.3C25 285.7 50 286.3 75 280.7C100 275 125 263 150 263.3C175 263.7 200 276.3 225 283.7C250 291 275 293 300 283.5C325 274 350 253 375 250.7C400 248.3 425 264.7 450 274C475 283.3 500 285.7 525 282.5C550 279.3 575 270.7 600 272.5C625 274.3 650 286.7 675 287.7C700 288.7 725 278.3 750 281.3C775 284.3 800 300.7 825 302.5C850 304.3 875 291.7 887.5 285.3L900 279L900 401L887.5 401C875 401 850 401 825 401C800 401 775 401 750 401C725 401 700 401 675 401C650 401 625 401 600 401C575 401 550 401 525 401C500 401 475 401 450 401C425 401 400 401 375 401C350 401 325 401 300 401C275 401 250 401 225 401C200 401 175 401 150 401C125 401 100 401 75 401C50 401 25 401 12.5 401L0 401Z" fill="#ff8f33"></path><path d="M0 330L12.5 332.5C25 335 50 340 75 337.7C100 335.3 125 325.7 150 317.8C175 310 200 304 225 306C250 308 275 318 300 323.8C325 329.7 350 331.3 375 330.3C400 329.3 425 325.7 450 322.5C475 319.3 500 316.7 525 309.8C550 303 575 292 600 295.3C625 298.7 650 316.3 675 324.2C700 332 725 330 750 325.5C775 321 800 314 825 309.5C850 305 875 303 887.5 302L900 301L900 401L887.5 401C875 401 850 401 825 401C800 401 775 401 750 401C725 401 700 401 675 401C650 401 625 401 600 401C575 401 550 401 525 401C500 401 475 401 450 401C425 401 400 401 375 401C350 401 325 401 300 401C275 401 250 401 225 401C200 401 175 401 150 401C125 401 100 401 75 401C50 401 25 401 12.5 401L0 401Z" fill="#ffb59c"></path><path d="M0 327L12.5 334.3C25 341.7 50 356.3 75 359.2C100 362 125 353 150 347.3C175 341.7 200 339.3 225 337.2C250 335 275 333 300 339.2C325 345.3 350 359.7 375 359C400 358.3 425 342.7 450 341C475 339.3 500 351.7 525 359.8C550 368 575 372 600 373.3C625 374.7 650 373.3 675 365.5C700 357.7 725 343.3 750 343.2C775 343 800 357 825 360.8C850 364.7 875 358.3 887.5 355.2L900 352L900 401L887.5 401C875 401 850 401 825 401C800 401 775 401 750 401C725 401 700 401 675 401C650 401 625 401 600 401C575 401 550 401 525 401C500 401 475 401 450 401C425 401 400 401 375 401C350 401 325 401 300 401C275 401 250 401 225 401C200 401 175 401 150 401C125 401 100 401 75 401C50 401 25 401 12.5 401L0 401Z" fill="#ffe8e8"></path></svg>