<svg width="900" height="400" viewBox="0 0 900 400" fill="none" xmlns="http://www.w3.org/2000/svg">
<g clip-path="url(#clip0_1_2)">
<path d="M900 0H0V400H900V0Z" fill="#001220"/>
<path d="M0 285L12.5 285.3C25 285.7 50 286.3 75 280.7C100 275 125 263 150 263.3C175 263.7 200 276.3 225 283.7C250 291 275 293 300 283.5C325 274 350 253 375 250.7C400 248.3 425 264.7 450 274C475 283.3 500 285.7 525 282.5C550 279.3 575 270.7 600 272.5C625 274.3 650 286.7 675 287.7C700 288.7 725 278.3 750 281.3C775 284.3 800 300.7 825 302.5C850 304.3 875 291.7 887.5 285.3L900 279V401H887.5C875 401 850 401 825 401C800 401 775 401 750 401C725 401 700 401 675 401C650 401 625 401 600 401C575 401 550 401 525 401C500 401 475 401 450 401C425 401 400 401 375 401C350 401 325 401 300 401C275 401 250 401 225 401C200 401 175 401 150 401C125 401 100 401 75 401C50 401 25 401 12.5 401H0V285Z" fill="#FF8F33"/>
<path d="M0 330L12.5 332.5C25 335 50 340 75 337.7C100 335.3 125 325.7 150 317.8C175 310 200 304 225 306C250 308 275 318 300 323.8C325 329.7 350 331.3 375 330.3C400 329.3 425 325.7 450 322.5C475 319.3 500 316.7 525 309.8C550 303 575 292 600 295.3C625 298.7 650 316.3 675 324.2C700 332 725 330 750 325.5C775 321 800 314 825 309.5C850 305 875 303 887.5 302L900 301V401H887.5C875 401 850 401 825 401C800 401 775 401 750 401C725 401 700 401 675 401C650 401 625 401 600 401C575 401 550 401 525 401C500 401 475 401 450 401C425 401 400 401 375 401C350 401 325 401 300 401C275 401 250 401 225 401C200 401 175 401 150 401C125 401 100 401 75 401C50 401 25 401 12.5 401H0V330Z" fill="#FFB59C"/>
<path d="M0 327L12.5 334.3C25 341.7 50 356.3 75 359.2C100 362 125 353 150 347.3C175 341.7 200 339.3 225 337.2C250 335 275 333 300 339.2C325 345.3 350 359.7 375 359C400 358.3 425 342.7 450 341C475 339.3 500 351.7 525 359.8C550 368 575 372 600 373.3C625 374.7 650 373.3 675 365.5C700 357.7 725 343.3 750 343.2C775 343 800 357 825 360.8C850 364.7 875 358.3 887.5 355.2L900 352V401H887.5C875 401 850 401 825 401C800 401 775 401 750 401C725 401 700 401 675 401C650 401 625 401 600 401C575 401 550 401 525 401C500 401 475 401 450 401C425 401 400 401 375 401C350 401 325 401 300 401C275 401 250 401 225 401C200 401 175 401 150 401C125 401 100 401 75 401C50 401 25 401 12.5 401H0V327Z" fill="#FFE8E8"/>
<path d="M260.45 99.925L256.325 95.65C257.725 94.45 258.825 92.95 259.625 91.15C260.425 89.4 260.825 87.325 260.825 84.925V53.95H267.875V85.225C267.875 88.725 267.275 91.675 266.075 94.075C264.925 96.525 263.05 98.475 260.45 99.925ZM260.225 42.7C260.225 41.6 260.65 40.675 261.5 39.925C262.4 39.175 263.375 38.8 264.425 38.8C265.475 38.8 266.4 39.175 267.2 39.925C268.05 40.675 268.475 41.6 268.475 42.7C268.475 43.85 268.05 44.8 267.2 45.55C266.4 46.25 265.475 46.6 264.425 46.6C263.375 46.6 262.4 46.225 261.5 45.475C260.65 44.725 260.225 43.8 260.225 42.7ZM276.784 69.175C276.784 66.075 277.509 63.275 278.959 60.775C280.459 58.275 282.509 56.3 285.109 54.85C287.709 53.4 290.659 52.675 293.959 52.675C297.359 52.675 300.334 53.4 302.884 54.85C305.434 56.3 307.409 58.275 308.809 60.775C310.209 63.275 310.909 66.075 310.909 69.175C310.909 72.275 310.209 75.1 308.809 77.65C307.409 80.15 305.409 82.125 302.809 83.575C300.259 85.025 297.284 85.75 293.884 85.75C290.584 85.75 287.634 85.075 285.034 83.725C282.484 82.325 280.459 80.4 278.959 77.95C277.509 75.45 276.784 72.525 276.784 69.175ZM283.759 69.25C283.759 71.25 284.209 73.075 285.109 74.725C286.009 76.325 287.209 77.6 288.709 78.55C290.259 79.5 291.959 79.975 293.809 79.975C295.759 79.975 297.484 79.5 298.984 78.55C300.534 77.6 301.734 76.325 302.584 74.725C303.434 73.075 303.859 71.25 303.859 69.25C303.859 67.25 303.434 65.45 302.584 63.85C301.734 62.2 300.534 60.9 298.984 59.95C297.484 58.95 295.759 58.45 293.809 58.45C291.909 58.45 290.184 58.95 288.634 59.95C287.134 60.95 285.934 62.275 285.034 63.925C284.184 65.525 283.759 67.3 283.759 69.25ZM326.578 53.95L327.178 61.525L326.878 60.325C327.878 58.025 329.503 56.2 331.753 54.85C334.003 53.45 336.603 52.75 339.553 52.75C342.503 52.75 344.903 53.625 346.753 55.375C348.653 57.075 349.628 59.3 349.678 62.05V85H342.628V64.525C342.578 62.825 342.078 61.45 341.128 60.4C340.228 59.3 338.803 58.75 336.853 58.75C335.053 58.75 333.428 59.25 331.978 60.25C330.528 61.25 329.378 62.625 328.528 64.375C327.728 66.125 327.328 68.15 327.328 70.45V85H320.353V53.95H326.578ZM368.033 53.95L368.633 61.525L368.333 60.325C369.333 58.025 370.958 56.2 373.208 54.85C375.458 53.45 378.058 52.75 381.008 52.75C383.958 52.75 386.358 53.625 388.208 55.375C390.108 57.075 391.083 59.3 391.133 62.05V85H384.083V64.525C384.033 62.825 383.533 61.45 382.583 60.4C381.683 59.3 380.258 58.75 378.308 58.75C376.508 58.75 374.883 59.25 373.433 60.25C371.983 61.25 370.833 62.625 369.983 64.375C369.183 66.125 368.783 68.15 368.783 70.45V85H361.808V53.95H368.033ZM404.79 99.925L425.265 53.95H431.715L411.69 99.925H404.79ZM412.44 85.225L397.515 53.95H405.39L417.915 81.7L412.44 85.225ZM437.125 65.8H451.15V71.95H437.125V65.8ZM487.204 82.15C485.804 83.25 484.129 84.125 482.179 84.775C480.229 85.425 478.279 85.75 476.329 85.75C472.929 85.75 469.954 85.075 467.404 83.725C464.854 82.375 462.854 80.5 461.404 78.1C460.004 75.65 459.304 72.775 459.304 69.475C459.304 66.175 460.054 63.3 461.554 60.85C463.104 58.4 465.104 56.525 467.554 55.225C470.054 53.875 472.729 53.2 475.579 53.2C478.079 53.2 480.304 53.55 482.254 54.25C484.254 54.95 485.954 55.9 487.354 57.1L483.904 61.6C483.004 60.9 481.904 60.275 480.604 59.725C479.304 59.175 477.829 58.9 476.179 58.9C474.379 58.9 472.704 59.375 471.154 60.325C469.654 61.225 468.454 62.475 467.554 64.075C466.704 65.675 466.279 67.475 466.279 69.475C466.279 71.375 466.729 73.15 467.629 74.8C468.529 76.4 469.779 77.675 471.379 78.625C472.979 79.525 474.804 79.975 476.854 79.975C478.204 79.975 479.429 79.775 480.529 79.375C481.679 78.975 482.704 78.425 483.604 77.725L487.204 82.15ZM493.508 69.175C493.508 66.075 494.233 63.275 495.683 60.775C497.183 58.275 499.233 56.3 501.833 54.85C504.433 53.4 507.383 52.675 510.683 52.675C514.083 52.675 517.058 53.4 519.608 54.85C522.158 56.3 524.133 58.275 525.533 60.775C526.933 63.275 527.633 66.075 527.633 69.175C527.633 72.275 526.933 75.1 525.533 77.65C524.133 80.15 522.133 82.125 519.533 83.575C516.983 85.025 514.008 85.75 510.608 85.75C507.308 85.75 504.358 85.075 501.758 83.725C499.208 82.325 497.183 80.4 495.683 77.95C494.233 75.45 493.508 72.525 493.508 69.175ZM500.483 69.25C500.483 71.25 500.933 73.075 501.833 74.725C502.733 76.325 503.933 77.6 505.433 78.55C506.983 79.5 508.683 79.975 510.533 79.975C512.483 79.975 514.208 79.5 515.708 78.55C517.258 77.6 518.458 76.325 519.308 74.725C520.158 73.075 520.583 71.25 520.583 69.25C520.583 67.25 520.158 65.45 519.308 63.85C518.458 62.2 517.258 60.9 515.708 59.95C514.208 58.95 512.483 58.45 510.533 58.45C508.633 58.45 506.908 58.95 505.358 59.95C503.858 60.95 502.658 62.275 501.758 63.925C500.908 65.525 500.483 67.3 500.483 69.25ZM549.677 85.75C546.827 85.75 544.227 85.075 541.877 83.725C539.577 82.325 537.752 80.375 536.402 77.875C535.052 75.325 534.377 72.4 534.377 69.1C534.377 65.65 535.077 62.7 536.477 60.25C537.927 57.8 539.877 55.925 542.327 54.625C544.777 53.325 547.527 52.675 550.577 52.675C553.027 52.675 555.352 53.2 557.552 54.25C559.802 55.3 561.552 56.75 562.802 58.6L562.502 61.075V26.95H569.402V85H562.427V77.275L563.177 79.225C561.727 81.125 559.852 82.7 557.552 83.95C555.252 85.15 552.627 85.75 549.677 85.75ZM551.852 79.825C553.702 79.825 555.352 79.5 556.802 78.85C558.252 78.15 559.452 77.2 560.402 76C561.352 74.8 562.027 73.375 562.427 71.725V65.875C562.027 64.375 561.302 63.075 560.252 61.975C559.252 60.825 558.027 59.925 556.577 59.275C555.177 58.575 553.602 58.225 551.852 58.225C549.952 58.225 548.202 58.7 546.602 59.65C545.052 60.55 543.802 61.8 542.852 63.4C541.902 65 541.427 66.85 541.427 68.95C541.427 71 541.902 72.85 542.852 74.5C543.802 76.1 545.077 77.4 546.677 78.4C548.277 79.35 550.002 79.825 551.852 79.825ZM595.935 85.75C592.385 85.75 589.335 85.05 586.785 83.65C584.235 82.2 582.26 80.25 580.86 77.8C579.51 75.3 578.835 72.45 578.835 69.25C578.835 66.2 579.61 63.425 581.16 60.925C582.71 58.425 584.785 56.425 587.385 54.925C589.985 53.425 592.885 52.675 596.085 52.675C600.185 52.675 603.585 53.875 606.285 56.275C608.985 58.675 610.81 61.975 611.76 66.175L586.185 75.175L584.535 71.05L605.535 63.4L604.035 64.375C603.435 62.725 602.435 61.3 601.035 60.1C599.635 58.85 597.81 58.225 595.56 58.225C593.66 58.225 591.96 58.7 590.46 59.65C588.96 60.55 587.785 61.8 586.935 63.4C586.085 65 585.66 66.825 585.66 68.875C585.66 71.025 586.11 72.925 587.01 74.575C587.91 76.175 589.135 77.45 590.685 78.4C592.285 79.3 594.085 79.75 596.085 79.75C597.435 79.75 598.735 79.5 599.985 79C601.285 78.5 602.485 77.85 603.585 77.05L606.81 82.225C605.26 83.275 603.51 84.125 601.56 84.775C599.66 85.425 597.785 85.75 595.935 85.75ZM629.2 85.6C627 85.6 624.85 85.225 622.75 84.475C620.7 83.675 619 82.5 617.65 80.95L620.575 76.9C621.875 78.15 623.2 79.1 624.55 79.75C625.95 80.35 627.325 80.65 628.675 80.65C629.675 80.65 630.6 80.525 631.45 80.275C632.3 80.025 632.975 79.625 633.475 79.075C634.025 78.475 634.3 77.675 634.3 76.675C634.3 75.575 633.925 74.7 633.175 74.05C632.475 73.4 631.55 72.875 630.4 72.475C629.3 72.075 628.125 71.7 626.875 71.35C624.325 70.5 622.375 69.325 621.025 67.825C619.675 66.325 619 64.5 619 62.35C619 60.7 619.4 59.175 620.2 57.775C621.05 56.325 622.275 55.15 623.875 54.25C625.525 53.35 627.55 52.9 629.95 52.9C632.1 52.9 634.025 53.175 635.725 53.725C637.425 54.225 639.025 55.075 640.525 56.275L637.75 60.625C636.85 59.675 635.775 58.975 634.525 58.525C633.275 58.075 632.15 57.825 631.15 57.775C630.3 57.725 629.475 57.85 628.675 58.15C627.925 58.45 627.3 58.875 626.8 59.425C626.3 59.975 626.05 60.625 626.05 61.375C626.05 62.425 626.4 63.275 627.1 63.925C627.8 64.575 628.7 65.1 629.8 65.5C630.95 65.85 632.075 66.225 633.175 66.625C634.725 67.075 636.1 67.675 637.3 68.425C638.5 69.175 639.45 70.1 640.15 71.2C640.9 72.3 641.275 73.675 641.275 75.325C641.275 77.175 640.825 78.9 639.925 80.5C639.075 82.05 637.75 83.3 635.95 84.25C634.2 85.15 631.95 85.6 629.2 85.6Z" fill="white"/>
<path d="M147.4 184.84C146.92 185.16 146.267 185.52 145.44 185.92C144.613 186.32 143.64 186.653 142.52 186.92C141.427 187.187 140.227 187.32 138.92 187.32C136.68 187.293 134.653 186.893 132.84 186.12C131.053 185.347 129.533 184.293 128.28 182.96C127.027 181.627 126.053 180.093 125.36 178.36C124.693 176.6 124.36 174.733 124.36 172.76C124.36 170.6 124.707 168.613 125.4 166.8C126.12 164.96 127.12 163.373 128.4 162.04C129.68 160.68 131.187 159.627 132.92 158.88C134.68 158.133 136.6 157.76 138.68 157.76C140.413 157.76 141.987 158 143.4 158.48C144.813 158.933 146.027 159.48 147.04 160.12L145.48 163.72C144.68 163.187 143.707 162.68 142.56 162.2C141.44 161.72 140.187 161.48 138.8 161.48C137.387 161.48 136.053 161.76 134.8 162.32C133.547 162.88 132.44 163.667 131.48 164.68C130.52 165.693 129.76 166.88 129.2 168.24C128.667 169.573 128.4 171.013 128.4 172.56C128.4 174.133 128.64 175.6 129.12 176.96C129.627 178.293 130.333 179.453 131.24 180.44C132.173 181.427 133.293 182.2 134.6 182.76C135.907 183.32 137.373 183.6 139 183.6C140.467 183.6 141.773 183.373 142.92 182.92C144.067 182.467 145.013 181.96 145.76 181.4L147.4 184.84ZM151.573 178.56C151.573 176.907 151.96 175.413 152.733 174.08C153.533 172.747 154.627 171.693 156.013 170.92C157.4 170.147 158.973 169.76 160.733 169.76C162.547 169.76 164.133 170.147 165.493 170.92C166.853 171.693 167.907 172.747 168.653 174.08C169.4 175.413 169.773 176.907 169.773 178.56C169.773 180.213 169.4 181.72 168.653 183.08C167.907 184.413 166.84 185.467 165.453 186.24C164.093 187.013 162.507 187.4 160.693 187.4C158.933 187.4 157.36 187.04 155.973 186.32C154.613 185.573 153.533 184.547 152.733 183.24C151.96 181.907 151.573 180.347 151.573 178.56ZM155.293 178.6C155.293 179.667 155.533 180.64 156.013 181.52C156.493 182.373 157.133 183.053 157.933 183.56C158.76 184.067 159.667 184.32 160.653 184.32C161.693 184.32 162.613 184.067 163.413 183.56C164.24 183.053 164.88 182.373 165.333 181.52C165.787 180.64 166.013 179.667 166.013 178.6C166.013 177.533 165.787 176.573 165.333 175.72C164.88 174.84 164.24 174.147 163.413 173.64C162.613 173.107 161.693 172.84 160.653 172.84C159.64 172.84 158.72 173.107 157.893 173.64C157.093 174.173 156.453 174.88 155.973 175.76C155.52 176.613 155.293 177.56 155.293 178.6ZM178.13 170.44L178.45 174.16L178.29 173.84C178.904 172.587 179.77 171.6 180.89 170.88C182.037 170.16 183.344 169.8 184.81 169.8C185.744 169.8 186.57 169.947 187.29 170.24C188.01 170.533 188.597 170.96 189.05 171.52C189.53 172.053 189.837 172.72 189.97 173.52L189.77 173.64C190.41 172.44 191.29 171.507 192.41 170.84C193.557 170.147 194.757 169.8 196.01 169.8C197.637 169.8 198.917 170.267 199.85 171.2C200.81 172.107 201.304 173.293 201.33 174.76V187H197.61V176.08C197.584 175.227 197.37 174.52 196.97 173.96C196.597 173.373 195.93 173.053 194.97 173C194.01 173 193.144 173.293 192.37 173.88C191.624 174.467 191.037 175.227 190.61 176.16C190.184 177.067 189.957 178.053 189.93 179.12V187H186.21V176.08C186.184 175.227 185.957 174.52 185.53 173.96C185.13 173.373 184.45 173.053 183.49 173C182.504 173 181.637 173.293 180.89 173.88C180.144 174.467 179.557 175.227 179.13 176.16C178.73 177.093 178.53 178.093 178.53 179.16V187H174.81V170.44H178.13ZM215.498 187.4C213.605 187.4 211.978 187.027 210.618 186.28C209.258 185.507 208.205 184.467 207.458 183.16C206.738 181.827 206.378 180.307 206.378 178.6C206.378 176.973 206.791 175.493 207.618 174.16C208.445 172.827 209.551 171.76 210.938 170.96C212.325 170.16 213.871 169.76 215.578 169.76C217.765 169.76 219.578 170.4 221.018 171.68C222.458 172.96 223.431 174.72 223.938 176.96L210.298 181.76L209.418 179.56L220.618 175.48L219.818 176C219.498 175.12 218.965 174.36 218.218 173.72C217.471 173.053 216.498 172.72 215.298 172.72C214.285 172.72 213.378 172.973 212.578 173.48C211.778 173.96 211.151 174.627 210.698 175.48C210.245 176.333 210.018 177.307 210.018 178.4C210.018 179.547 210.258 180.56 210.738 181.44C211.218 182.293 211.871 182.973 212.698 183.48C213.551 183.96 214.511 184.2 215.578 184.2C216.298 184.2 216.991 184.067 217.658 183.8C218.351 183.533 218.991 183.187 219.578 182.76L221.298 185.52C220.471 186.08 219.538 186.533 218.498 186.88C217.485 187.227 216.485 187.4 215.498 187.4ZM245.896 187.32C244.722 187.32 243.576 187.12 242.456 186.72C241.362 186.293 240.456 185.667 239.736 184.84L241.296 182.68C241.989 183.347 242.696 183.853 243.416 184.2C244.162 184.52 244.896 184.68 245.616 184.68C246.149 184.68 246.642 184.613 247.096 184.48C247.549 184.347 247.909 184.133 248.176 183.84C248.469 183.52 248.616 183.093 248.616 182.56C248.616 181.973 248.416 181.507 248.016 181.16C247.642 180.813 247.149 180.533 246.536 180.32C245.949 180.107 245.322 179.907 244.656 179.72C243.296 179.267 242.256 178.64 241.536 177.84C240.816 177.04 240.456 176.067 240.456 174.92C240.456 174.04 240.669 173.227 241.096 172.48C241.549 171.707 242.202 171.08 243.056 170.6C243.936 170.12 245.016 169.88 246.296 169.88C247.442 169.88 248.469 170.027 249.376 170.32C250.282 170.587 251.136 171.04 251.936 171.68L250.456 174C249.976 173.493 249.402 173.12 248.736 172.88C248.069 172.64 247.469 172.507 246.936 172.48C246.482 172.453 246.042 172.52 245.616 172.68C245.216 172.84 244.882 173.067 244.616 173.36C244.349 173.653 244.216 174 244.216 174.4C244.216 174.96 244.402 175.413 244.776 175.76C245.149 176.107 245.629 176.387 246.216 176.6C246.829 176.787 247.429 176.987 248.016 177.2C248.842 177.44 249.576 177.76 250.216 178.16C250.856 178.56 251.362 179.053 251.736 179.64C252.136 180.227 252.336 180.96 252.336 181.84C252.336 182.827 252.096 183.747 251.616 184.6C251.162 185.427 250.456 186.093 249.496 186.6C248.562 187.08 247.362 187.32 245.896 187.32ZM265.225 187.4C263.331 187.4 261.705 187.027 260.345 186.28C258.985 185.507 257.931 184.467 257.185 183.16C256.465 181.827 256.105 180.307 256.105 178.6C256.105 176.973 256.518 175.493 257.345 174.16C258.171 172.827 259.278 171.76 260.665 170.96C262.051 170.16 263.598 169.76 265.305 169.76C267.491 169.76 269.305 170.4 270.745 171.68C272.185 172.96 273.158 174.72 273.665 176.96L260.025 181.76L259.145 179.56L270.345 175.48L269.545 176C269.225 175.12 268.691 174.36 267.945 173.72C267.198 173.053 266.225 172.72 265.025 172.72C264.011 172.72 263.105 172.973 262.305 173.48C261.505 173.96 260.878 174.627 260.425 175.48C259.971 176.333 259.745 177.307 259.745 178.4C259.745 179.547 259.985 180.56 260.465 181.44C260.945 182.293 261.598 182.973 262.425 183.48C263.278 183.96 264.238 184.2 265.305 184.2C266.025 184.2 266.718 184.067 267.385 183.8C268.078 183.533 268.718 183.187 269.305 182.76L271.025 185.52C270.198 186.08 269.265 186.533 268.225 186.88C267.211 187.227 266.211 187.4 265.225 187.4ZM286.006 187.4C284.113 187.4 282.486 187.027 281.126 186.28C279.766 185.507 278.713 184.467 277.966 183.16C277.246 181.827 276.886 180.307 276.886 178.6C276.886 176.973 277.299 175.493 278.126 174.16C278.953 172.827 280.059 171.76 281.446 170.96C282.833 170.16 284.379 169.76 286.086 169.76C288.273 169.76 290.086 170.4 291.526 171.68C292.966 172.96 293.939 174.72 294.446 176.96L280.806 181.76L279.926 179.56L291.126 175.48L290.326 176C290.006 175.12 289.473 174.36 288.726 173.72C287.979 173.053 287.006 172.72 285.806 172.72C284.793 172.72 283.886 172.973 283.086 173.48C282.286 173.96 281.659 174.627 281.206 175.48C280.753 176.333 280.526 177.307 280.526 178.4C280.526 179.547 280.766 180.56 281.246 181.44C281.726 182.293 282.379 182.973 283.206 183.48C284.059 183.96 285.019 184.2 286.086 184.2C286.806 184.2 287.499 184.067 288.166 183.8C288.859 183.533 289.499 183.187 290.086 182.76L291.806 185.52C290.979 186.08 290.046 186.533 289.006 186.88C287.993 187.227 286.993 187.4 286.006 187.4ZM322.363 170.44L327.243 181.6L326.523 181.68L331.083 170.44H334.723L327.123 188L321.803 176.64L316.963 188L309.283 170.44H312.923L318.083 182.12L316.803 181.88L320.483 173.32L319.163 170.44H322.363ZM338.717 187V156.04H342.357V174.28L342.277 173.6C342.837 172.507 343.69 171.6 344.837 170.88C346.01 170.16 347.383 169.8 348.957 169.8C350.53 169.8 351.81 170.267 352.797 171.2C353.81 172.107 354.33 173.293 354.357 174.76V187H350.597V176.08C350.57 175.173 350.303 174.44 349.797 173.88C349.317 173.293 348.557 173 347.517 173C346.557 173 345.69 173.28 344.917 173.84C344.143 174.373 343.53 175.107 343.077 176.04C342.65 176.973 342.437 178.04 342.437 179.24V187H338.717ZM367.706 187.4C366.159 187.4 364.746 187.067 363.466 186.4C362.213 185.733 361.213 184.76 360.466 183.48C359.746 182.173 359.386 180.587 359.386 178.72C359.386 176.88 359.773 175.293 360.546 173.96C361.319 172.6 362.346 171.56 363.626 170.84C364.933 170.12 366.359 169.76 367.906 169.76C369.453 169.76 370.759 170.12 371.826 170.84C372.893 171.533 373.706 172.36 374.266 173.32L374.026 173.96L374.386 170.44H377.826V187H374.106V182.68L374.506 183.64C374.399 183.907 374.159 184.253 373.786 184.68C373.439 185.08 372.959 185.493 372.346 185.92C371.759 186.347 371.079 186.707 370.306 187C369.533 187.267 368.666 187.4 367.706 187.4ZM368.706 184.32C369.639 184.32 370.479 184.147 371.226 183.8C371.973 183.453 372.586 182.973 373.066 182.36C373.573 181.72 373.919 180.96 374.106 180.08V176.84C373.893 176.04 373.519 175.347 372.986 174.76C372.453 174.147 371.813 173.68 371.066 173.36C370.319 173.013 369.493 172.84 368.586 172.84C367.599 172.84 366.693 173.08 365.866 173.56C365.039 174.04 364.373 174.707 363.866 175.56C363.386 176.413 363.146 177.413 363.146 178.56C363.146 179.627 363.399 180.6 363.906 181.48C364.413 182.36 365.093 183.053 365.946 183.56C366.799 184.067 367.719 184.32 368.706 184.32ZM385.863 163.16H389.583V170.52H394.143V173.44H389.583V187H385.863V173.44H382.823V170.52H385.863V163.16ZM412.215 158.08H416.095V187H412.215V158.08ZM423.522 164.44L421.642 163.48C422.202 162.947 422.642 162.213 422.962 161.28C423.309 160.347 423.389 159.413 423.202 158.48L426.162 158.2C426.322 158.947 426.296 159.733 426.082 160.56C425.869 161.36 425.536 162.107 425.082 162.8C424.629 163.493 424.109 164.04 423.522 164.44ZM437.585 187.48L428.385 170.44H432.785L439.025 183.6L436.745 183.52L442.465 170.44H446.625L437.785 187.48H437.585ZM457.92 187.4C456.027 187.4 454.4 187.027 453.04 186.28C451.68 185.507 450.627 184.467 449.88 183.16C449.16 181.827 448.8 180.307 448.8 178.6C448.8 176.973 449.213 175.493 450.04 174.16C450.867 172.827 451.973 171.76 453.36 170.96C454.747 170.16 456.293 169.76 458 169.76C460.187 169.76 462 170.4 463.44 171.68C464.88 172.96 465.853 174.72 466.36 176.96L452.72 181.76L451.84 179.56L463.04 175.48L462.24 176C461.92 175.12 461.387 174.36 460.64 173.72C459.893 173.053 458.92 172.72 457.72 172.72C456.707 172.72 455.8 172.973 455 173.48C454.2 173.96 453.573 174.627 453.12 175.48C452.667 176.333 452.44 177.307 452.44 178.4C452.44 179.547 452.68 180.56 453.16 181.44C453.64 182.293 454.293 182.973 455.12 183.48C455.973 183.96 456.933 184.2 458 184.2C458.72 184.2 459.413 184.067 460.08 183.8C460.773 183.533 461.413 183.187 462 182.76L463.72 185.52C462.893 186.08 461.96 186.533 460.92 186.88C459.907 187.227 458.907 187.4 457.92 187.4ZM493.758 187.4C492.238 187.4 490.891 187.067 489.718 186.4C488.571 185.733 487.651 184.893 486.958 183.88L487.398 182.72V187H483.678V156.04H487.358V174.24L487.238 172.84C487.904 171.933 488.851 171.2 490.078 170.64C491.331 170.053 492.718 169.76 494.238 169.76C495.731 169.76 497.091 170.12 498.318 170.84C499.544 171.56 500.518 172.573 501.238 173.88C501.984 175.16 502.358 176.693 502.358 178.48C502.358 180.347 501.958 181.947 501.158 183.28C500.384 184.613 499.344 185.64 498.038 186.36C496.731 187.053 495.304 187.4 493.758 187.4ZM492.998 184.24C494.064 184.24 495.024 183.987 495.878 183.48C496.731 182.973 497.398 182.293 497.878 181.44C498.358 180.56 498.598 179.56 498.598 178.44C498.598 177.373 498.344 176.413 497.838 175.56C497.358 174.68 496.691 173.987 495.838 173.48C495.011 172.973 494.064 172.72 492.998 172.72C492.091 172.72 491.251 172.893 490.478 173.24C489.704 173.587 489.051 174.067 488.518 174.68C487.984 175.267 487.611 175.96 487.398 176.76V180.08C487.611 180.88 487.971 181.6 488.478 182.24C488.984 182.853 489.624 183.347 490.398 183.72C491.171 184.067 492.038 184.24 492.998 184.24ZM515.068 187.4C513.175 187.4 511.548 187.027 510.188 186.28C508.828 185.507 507.775 184.467 507.028 183.16C506.308 181.827 505.948 180.307 505.948 178.6C505.948 176.973 506.362 175.493 507.188 174.16C508.015 172.827 509.122 171.76 510.508 170.96C511.895 170.16 513.442 169.76 515.148 169.76C517.335 169.76 519.148 170.4 520.588 171.68C522.028 172.96 523.002 174.72 523.508 176.96L509.868 181.76L508.988 179.56L520.188 175.48L519.388 176C519.068 175.12 518.535 174.36 517.788 173.72C517.042 173.053 516.068 172.72 514.868 172.72C513.855 172.72 512.948 172.973 512.148 173.48C511.348 173.96 510.722 174.627 510.268 175.48C509.815 176.333 509.588 177.307 509.588 178.4C509.588 179.547 509.828 180.56 510.308 181.44C510.788 182.293 511.442 182.973 512.268 183.48C513.122 183.96 514.082 184.2 515.148 184.2C515.868 184.2 516.562 184.067 517.228 183.8C517.922 183.533 518.562 183.187 519.148 182.76L520.868 185.52C520.042 186.08 519.108 186.533 518.068 186.88C517.055 187.227 516.055 187.4 515.068 187.4ZM535.85 187.4C533.956 187.4 532.33 187.027 530.97 186.28C529.61 185.507 528.556 184.467 527.81 183.16C527.09 181.827 526.73 180.307 526.73 178.6C526.73 176.973 527.143 175.493 527.97 174.16C528.796 172.827 529.903 171.76 531.29 170.96C532.676 170.16 534.223 169.76 535.93 169.76C538.116 169.76 539.93 170.4 541.37 171.68C542.81 172.96 543.783 174.72 544.29 176.96L530.65 181.76L529.77 179.56L540.97 175.48L540.17 176C539.85 175.12 539.316 174.36 538.57 173.72C537.823 173.053 536.85 172.72 535.65 172.72C534.636 172.72 533.73 172.973 532.93 173.48C532.13 173.96 531.503 174.627 531.05 175.48C530.596 176.333 530.37 177.307 530.37 178.4C530.37 179.547 530.61 180.56 531.09 181.44C531.57 182.293 532.223 182.973 533.05 183.48C533.903 183.96 534.863 184.2 535.93 184.2C536.65 184.2 537.343 184.067 538.01 183.8C538.703 183.533 539.343 183.187 539.93 182.76L541.65 185.52C540.823 186.08 539.89 186.533 538.85 186.88C537.836 187.227 536.836 187.4 535.85 187.4ZM552.271 170.44L552.591 174.48L552.431 173.84C552.964 172.613 553.831 171.64 555.031 170.92C556.231 170.173 557.618 169.8 559.191 169.8C560.764 169.8 562.044 170.267 563.031 171.2C564.044 172.107 564.564 173.293 564.591 174.76V187H560.831V176.08C560.804 175.173 560.538 174.44 560.031 173.88C559.551 173.293 558.791 173 557.751 173C556.791 173 555.924 173.267 555.151 173.8C554.378 174.333 553.764 175.067 553.311 176C552.884 176.933 552.671 178.013 552.671 179.24V187H548.951V170.44H552.271ZM594.317 170.44L599.197 181.6L598.477 181.68L603.037 170.44H606.677L599.077 188L593.757 176.64L588.917 188L581.237 170.44H584.877L590.037 182.12L588.757 181.88L592.437 173.32L591.117 170.44H594.317ZM608.839 178.56C608.839 176.907 609.226 175.413 609.999 174.08C610.799 172.747 611.892 171.693 613.279 170.92C614.666 170.147 616.239 169.76 617.999 169.76C619.812 169.76 621.399 170.147 622.759 170.92C624.119 171.693 625.172 172.747 625.919 174.08C626.666 175.413 627.039 176.907 627.039 178.56C627.039 180.213 626.666 181.72 625.919 183.08C625.172 184.413 624.106 185.467 622.719 186.24C621.359 187.013 619.772 187.4 617.959 187.4C616.199 187.4 614.626 187.04 613.239 186.32C611.879 185.573 610.799 184.547 609.999 183.24C609.226 181.907 608.839 180.347 608.839 178.56ZM612.559 178.6C612.559 179.667 612.799 180.64 613.279 181.52C613.759 182.373 614.399 183.053 615.199 183.56C616.026 184.067 616.932 184.32 617.919 184.32C618.959 184.32 619.879 184.067 620.679 183.56C621.506 183.053 622.146 182.373 622.599 181.52C623.052 180.64 623.279 179.667 623.279 178.6C623.279 177.533 623.052 176.573 622.599 175.72C622.146 174.84 621.506 174.147 620.679 173.64C619.879 173.107 618.959 172.84 617.919 172.84C616.906 172.84 615.986 173.107 615.159 173.64C614.359 174.173 613.719 174.88 613.239 175.76C612.786 176.613 612.559 177.56 612.559 178.6ZM635.396 170.44L635.756 175.24L635.556 174.6C635.983 173.587 636.596 172.733 637.396 172.04C638.223 171.32 639.076 170.773 639.956 170.4C640.863 170 641.649 169.8 642.316 169.8L642.116 173.48C640.863 173.4 639.756 173.64 638.796 174.2C637.863 174.76 637.116 175.507 636.556 176.44C636.023 177.373 635.756 178.373 635.756 179.44V187H632.076V170.44H635.396ZM647.115 187V156.04H650.835V187H647.115ZM654.835 176L662.435 187H658.075L652.355 178.08L654.835 176ZM649.675 181.72L649.315 178.16L659.355 170.08L661.635 172.04L649.675 181.72ZM667.037 170.44H670.757V187H667.037V170.44ZM666.757 164.44C666.757 163.853 666.984 163.36 667.437 162.96C667.917 162.56 668.437 162.36 668.997 162.36C669.557 162.36 670.05 162.56 670.477 162.96C670.93 163.36 671.157 163.853 671.157 164.44C671.157 165.053 670.93 165.56 670.477 165.96C670.05 166.333 669.557 166.52 668.997 166.52C668.437 166.52 667.917 166.32 667.437 165.92C666.984 165.52 666.757 165.027 666.757 164.44ZM680.513 170.44L680.833 174.48L680.673 173.84C681.206 172.613 682.073 171.64 683.273 170.92C684.473 170.173 685.86 169.8 687.433 169.8C689.006 169.8 690.286 170.267 691.273 171.2C692.286 172.107 692.806 173.293 692.833 174.76V187H689.073V176.08C689.046 175.173 688.78 174.44 688.273 173.88C687.793 173.293 687.033 173 685.993 173C685.033 173 684.166 173.267 683.393 173.8C682.62 174.333 682.006 175.067 681.553 176C681.126 176.933 680.913 178.013 680.913 179.24V187H677.193V170.44H680.513ZM707.263 195.2C706.036 195.2 704.956 195.053 704.023 194.76C703.089 194.493 702.236 194.107 701.463 193.6C700.716 193.093 699.996 192.52 699.303 191.88L701.463 189.36C702.343 190.187 703.236 190.827 704.143 191.28C705.049 191.733 706.063 191.96 707.183 191.96C708.436 191.96 709.489 191.747 710.343 191.32C711.223 190.92 711.889 190.347 712.343 189.6C712.796 188.88 713.023 188.04 713.023 187.08L713.063 182.6L713.383 183.32C712.903 184.467 712.036 185.44 710.783 186.24C709.529 187.013 708.009 187.4 706.223 187.4C704.703 187.4 703.303 187.013 702.023 186.24C700.769 185.467 699.756 184.427 698.983 183.12C698.236 181.787 697.863 180.293 697.863 178.64C697.863 176.907 698.263 175.387 699.063 174.08C699.863 172.747 700.916 171.693 702.223 170.92C703.529 170.147 704.956 169.76 706.503 169.76C707.969 169.76 709.303 170.067 710.503 170.68C711.729 171.267 712.623 172.027 713.183 172.96L712.983 173.64L713.383 170.44H716.783V187.12C716.783 188.613 716.396 189.973 715.623 191.2C714.849 192.427 713.756 193.4 712.343 194.12C710.929 194.84 709.236 195.2 707.263 195.2ZM701.583 178.56C701.583 179.627 701.836 180.6 702.343 181.48C702.849 182.36 703.529 183.053 704.383 183.56C705.263 184.067 706.236 184.32 707.303 184.32C708.289 184.32 709.169 184.147 709.943 183.8C710.743 183.427 711.409 182.933 711.943 182.32C712.476 181.68 712.849 180.947 713.063 180.12V176.84C712.823 176.04 712.423 175.347 711.863 174.76C711.303 174.147 710.636 173.68 709.863 173.36C709.089 173.013 708.236 172.84 707.303 172.84C706.236 172.84 705.263 173.08 704.383 173.56C703.529 174.04 702.849 174.72 702.343 175.6C701.836 176.453 701.583 177.44 701.583 178.56ZM734.425 178.56C734.425 176.907 734.812 175.413 735.585 174.08C736.385 172.747 737.478 171.693 738.865 170.92C740.252 170.147 741.825 169.76 743.585 169.76C745.398 169.76 746.985 170.147 748.345 170.92C749.705 171.693 750.758 172.747 751.505 174.08C752.252 175.413 752.625 176.907 752.625 178.56C752.625 180.213 752.252 181.72 751.505 183.08C750.758 184.413 749.692 185.467 748.305 186.24C746.945 187.013 745.358 187.4 743.545 187.4C741.785 187.4 740.212 187.04 738.825 186.32C737.465 185.573 736.385 184.547 735.585 183.24C734.812 181.907 734.425 180.347 734.425 178.56ZM738.145 178.6C738.145 179.667 738.385 180.64 738.865 181.52C739.345 182.373 739.985 183.053 740.785 183.56C741.612 184.067 742.518 184.32 743.505 184.32C744.545 184.32 745.465 184.067 746.265 183.56C747.092 183.053 747.732 182.373 748.185 181.52C748.638 180.64 748.865 179.667 748.865 178.6C748.865 177.533 748.638 176.573 748.185 175.72C747.732 174.84 747.092 174.147 746.265 173.64C745.465 173.107 744.545 172.84 743.505 172.84C742.492 172.84 741.572 173.107 740.745 173.64C739.945 174.173 739.305 174.88 738.825 175.76C738.372 176.613 738.145 177.56 738.145 178.6ZM760.982 170.44L761.302 174.48L761.142 173.84C761.675 172.613 762.542 171.64 763.742 170.92C764.942 170.173 766.329 169.8 767.902 169.8C769.475 169.8 770.755 170.267 771.742 171.2C772.755 172.107 773.275 173.293 773.302 174.76V187H769.542V176.08C769.515 175.173 769.249 174.44 768.742 173.88C768.262 173.293 767.502 173 766.462 173C765.502 173 764.635 173.267 763.862 173.8C763.089 174.333 762.475 175.067 762.022 176C761.595 176.933 761.382 178.013 761.382 179.24V187H757.662V170.44H760.982Z" fill="white"/>
</g>
<defs>
<clipPath id="clip0_1_2">
<rect width="900" height="400" fill="white"/>
</clipPath>
</defs>
</svg>
